<svg width="30" height="28" viewBox="0 0 30 28" fill="none" xmlns="http://www.w3.org/2000/svg">
<path d="M11.8945 0.0605469C8.15625 0.494141 4.77539 2.62695 2.80078 5.80859C0.796878 9.03711 0.392581 13.0625 1.71094 16.6367C2.99414 20.1113 5.88281 22.8945 9.4043 24.0488C10.8809 24.5352 12.0234 24.6934 13.6816 24.6465C15.1465 24.6055 16.4414 24.3652 17.6074 23.9082L18.0586 23.7324L18.0352 24.3887C18 25.3262 17.8418 25.6309 16.9395 26.5566C16.3008 27.207 16.2598 27.2656 16.2598 27.4883C16.2598 27.6758 16.2949 27.752 16.4238 27.8633L16.5879 28.0039H22.6641C29.0977 27.998 28.8457 28.0098 28.9922 27.7285C29.1504 27.4355 29.0918 27.3242 28.3828 26.5859C27.668 25.8359 27.4277 25.4609 27.3105 24.9102C27.2695 24.7109 27.2461 23.8379 27.2461 22.5195C27.2461 20.2578 27.2402 20.1875 26.9062 19.8418C26.5781 19.4961 26.4023 19.4492 25.4004 19.4492H24.4922V18.4883C24.4922 17.5977 24.5039 17.5098 24.6387 17.1992C25.043 16.2793 25.3652 15.1367 25.5234 14.0176C25.6289 13.2676 25.6406 11.6211 25.5469 10.8652C25.248 8.45117 24.2754 6.22461 22.6816 4.32617C20.7012 1.95898 17.7305 0.394531 14.5781 0.0546875C13.916 -0.015625 12.5273 -0.00976562 11.8945 0.0605469ZM14.748 0.787109C17.2969 1.12109 19.5 2.1875 21.3516 3.98047C22.752 5.33398 23.7129 6.8457 24.3164 8.63281C25.0371 10.7598 25.1074 12.875 24.5391 15.3887C24.5332 15.4121 24.5156 15.125 24.498 14.75C24.4688 14.1289 24.4512 14.0527 24.3164 13.9062C24.1465 13.7246 23.8594 13.5898 23.6309 13.5898H23.4668V12.4062C23.4668 11.1348 23.4199 10.7598 23.1445 9.69336C22.2773 6.37109 19.6816 3.64648 16.4063 2.60352C13.8809 1.80664 11.1914 2 8.81836 3.16016C7.57617 3.76367 6.48633 4.58984 5.61914 5.58594C1.52344 10.2734 2.50781 17.498 7.70508 20.8906C10.623 22.7949 14.3965 23.0703 17.5664 21.6113L18.0469 21.3887V22.1738V22.9531L17.625 23.1289C16.998 23.3867 16.3125 23.5918 15.5098 23.7617C14.5137 23.9727 12.8145 24.0195 11.7656 23.873C7.81055 23.3164 4.50586 20.9082 2.77735 17.3105C-0.392575 10.7305 3.34571 2.84961 10.4883 1.03906C11.8242 0.705078 13.3828 0.611328 14.748 0.787109ZM14.1855 2.87305C18.1992 3.27734 21.5098 6.13086 22.5059 10.0273C22.752 10.9941 22.8516 12.2949 22.7578 13.2266L22.7168 13.5781L22.0254 13.6016C21.4395 13.6191 21.3105 13.6367 21.1699 13.7422C20.8477 13.9766 20.8008 14.1699 20.8008 15.1836V16.1035L20.4375 15.8926C20.2383 15.7754 19.998 15.6816 19.9043 15.6816C19.582 15.6816 19.459 16.0508 19.7051 16.2676C19.8516 16.3965 20.666 16.8711 20.748 16.8711C20.7773 16.8711 20.8008 17.1582 20.8008 17.5039V18.1426L20.4258 18.5762C19.752 19.3555 19.6523 19.4316 19.2305 19.4609C18.9434 19.4785 18.8145 19.5254 18.6211 19.6602C18.3574 19.8418 18.1055 20.2168 18.1055 20.4219C18.1055 20.5156 17.9707 20.6094 17.4844 20.8496C14.8594 22.1504 11.8594 22.1738 9.21094 20.9141C5.25 19.0273 3.08789 14.6738 3.98438 10.3848C4.23047 9.19531 4.69336 8.11133 5.39649 7.04492C5.97656 6.17773 7.11914 5.03516 7.98633 4.45508C9.88477 3.20117 12.0293 2.65039 14.1855 2.87305ZM20.8008 19.3613C20.8008 19.4082 20.7598 19.4492 20.707 19.4492C20.625 19.4492 20.625 19.4316 20.6836 19.3613C20.7246 19.3145 20.7656 19.2734 20.7773 19.2734C20.7891 19.2734 20.8008 19.3145 20.8008 19.3613ZM26.543 23.6211C26.543 25.3438 26.7187 25.8711 27.5918 26.7852L28.0781 27.3008H26.666H25.2539V25.4434C25.2539 23.8027 25.2422 23.5742 25.1543 23.4805C25.0371 23.3516 24.7969 23.3457 24.6563 23.4746C24.5566 23.5625 24.5508 23.7031 24.5508 25.4375V27.3008H23.7891H23.0273V26.5508C23.0273 25.9707 23.0098 25.7773 22.9336 25.6719C22.8398 25.5312 22.623 25.502 22.4355 25.6016C22.3359 25.6602 22.3242 25.7363 22.3242 26.4805V27.3008H21.5332H20.7422V26.0879C20.7422 25.0449 20.7305 24.8633 20.6426 24.7695C20.5195 24.6289 20.3027 24.6348 20.1563 24.7812C20.0449 24.8926 20.0391 24.9746 20.0391 26.0996V27.3008H18.627H17.209L17.7129 26.7793C18.5977 25.8594 18.75 25.4141 18.75 23.7148V22.5547H22.6465H26.543V23.6211Z" fill="#F7B103"/>
<path d="M13.043 3.60547C12.9668 3.67578 12.9492 3.83984 12.9492 4.41992C12.9492 5.10547 12.9551 5.15234 13.0781 5.23437C13.2539 5.35742 13.3945 5.35156 13.5352 5.21094C13.6406 5.10547 13.6523 5.01758 13.6523 4.43164C13.6523 3.92773 13.6289 3.74023 13.5586 3.64062C13.4531 3.48828 13.1777 3.46484 13.043 3.60547Z" fill="#F7B103"/>
<path d="M8.8418 4.68357C8.61915 4.81247 8.6543 5.01755 9 5.62693C9.36329 6.2656 9.50391 6.38865 9.75586 6.27732C10.0723 6.13083 9.99024 5.80271 9.4336 4.96482C9.22266 4.64255 9.04102 4.56052 8.8418 4.68357Z" fill="#F7B103"/>
<path d="M17.332 4.6953C17.1621 4.8242 16.6406 5.79686 16.6406 5.9785C16.6406 6.09569 16.6875 6.17772 16.793 6.24803C16.9336 6.33592 16.9629 6.33592 17.1035 6.25975C17.291 6.15428 17.8711 5.18162 17.8711 4.96483C17.8711 4.70115 17.5371 4.53709 17.332 4.6953Z" fill="#F7B103"/>
<path d="M13.125 6.20117C12.9844 6.24219 12.7148 6.54102 12.1523 7.2793C11.9531 7.54297 11.8945 7.67773 11.8945 7.83594C11.8945 7.95898 12.0117 8.73242 12.1465 9.55859L12.4043 11.0645L12.252 11.1758C11.9824 11.375 11.7598 11.8672 11.7539 12.2656C11.748 12.4648 11.7656 12.6875 11.7891 12.7695C11.8242 12.9043 11.7656 12.957 11.0039 13.4727C9.58008 14.4336 9.49219 14.5039 9.49219 14.6973C9.49219 14.9082 9.62695 15.0547 9.82617 15.0547C9.91992 15.0547 10.377 14.7793 11.0859 14.2871L12.1992 13.5195L12.5273 13.6836C12.8086 13.8242 12.9316 13.8535 13.3008 13.8535C13.8047 13.8477 14.0215 13.7598 14.3965 13.4023L14.6367 13.1621L16.084 13.4141C17.2617 13.6133 17.5547 13.6484 17.6836 13.5957C17.9531 13.4785 18.9492 12.6289 19.0078 12.4648C19.043 12.3594 19.043 12.2598 18.9961 12.1602C18.9316 12.0195 17.9883 11.2227 17.707 11.0762C17.5898 11.0176 17.332 11.041 16.1016 11.2461L14.6309 11.4922L14.4023 11.2578L14.168 11.0234L14.4434 9.42969C14.5898 8.54492 14.7012 7.77148 14.6836 7.70117C14.6484 7.56641 13.6934 6.31836 13.5762 6.25977C13.4355 6.18359 13.2656 6.16016 13.125 6.20117ZM13.7461 11.627C14.1035 11.8613 14.2266 12.3887 14.0039 12.752C13.6465 13.3379 12.8379 13.2969 12.5332 12.6699C12.3809 12.3594 12.416 12.0957 12.6387 11.8262C12.9316 11.4805 13.3945 11.3984 13.7461 11.627Z" fill="#F7B103"/>
<path d="M5.7539 7.77147C5.63672 7.81835 5.56054 8.06444 5.61914 8.21678C5.65429 8.31053 5.88281 8.4746 6.26367 8.69139C6.77343 8.9785 6.8789 9.01952 7.01953 8.97264C7.20703 8.91405 7.32422 8.65624 7.23047 8.50389C7.14257 8.36327 6.08789 7.73046 5.94726 7.73632C5.88281 7.73632 5.79492 7.75389 5.7539 7.77147Z" fill="#F7B103"/>
<path d="M19.9512 8.0703C19.3652 8.41014 19.3652 8.41014 19.3652 8.63866C19.3652 8.82616 19.3945 8.88475 19.5176 8.95507C19.6582 9.03124 19.6934 9.02538 19.9863 8.87889C20.1621 8.78514 20.4492 8.61522 20.625 8.49803C20.8887 8.32811 20.9531 8.25194 20.9648 8.0996C20.9766 7.96483 20.9473 7.89452 20.8477 7.82421C20.7773 7.77147 20.6777 7.73046 20.625 7.73046C20.5781 7.73046 20.2734 7.8828 19.9512 8.0703Z" fill="#F7B103"/>
<path d="M4.50001 12.1543C4.45313 12.2598 4.44727 12.3594 4.48829 12.4648L4.54102 12.623H5.36134H6.18165L6.23438 12.4648C6.2754 12.3594 6.26954 12.2598 6.22266 12.1543C6.15235 12.0078 6.15235 12.0078 5.36134 12.0078C4.57032 12.0078 4.57032 12.0078 4.50001 12.1543Z" fill="#F7B103"/>
<path d="M20.4023 12.0782C20.2793 12.2422 20.2734 12.4004 20.3848 12.541C20.4902 12.6699 20.543 12.6817 21.1348 12.6992C21.8848 12.7168 22.0488 12.6582 22.0781 12.3711C22.1133 12.0371 22.043 12.0078 21.2109 12.0078C20.6836 12.0078 20.4492 12.0313 20.4023 12.0782Z" fill="#F7B103"/>
<path d="M6.25196 15.9746C5.63086 16.3262 5.52539 16.4551 5.61914 16.7129C5.74805 17.0469 6.07617 16.9707 6.92578 16.4023C7.25391 16.1855 7.3418 15.9922 7.19531 15.8047C7.03125 15.5937 6.85547 15.6289 6.25196 15.9746Z" fill="#F7B103"/>
<path d="M9.45703 18.3945C9.38672 18.4238 9.1875 18.6992 8.99414 19.0449C8.70703 19.5488 8.66601 19.666 8.70703 19.7949C8.77148 19.9766 9.04101 20.0879 9.1875 20C9.32812 19.918 9.95508 18.8633 9.96093 18.7109C9.96093 18.4648 9.69726 18.2949 9.45703 18.3945Z" fill="#F7B103"/>
<path d="M16.7695 18.4297C16.5645 18.5703 16.6055 18.8047 16.9395 19.3906C17.2383 19.918 17.3555 20.0352 17.5664 20.0352C17.7129 20.0352 17.8711 19.8535 17.8711 19.6953C17.8711 19.5254 17.3027 18.5352 17.1445 18.4238C16.9922 18.3125 16.9336 18.3125 16.7695 18.4297Z" fill="#F7B103"/>
<path d="M13.0781 19.4258C12.9551 19.5078 12.9492 19.5547 12.9492 20.2637C12.9492 21.084 12.9727 21.1484 13.2832 21.1484C13.6055 21.1484 13.6641 20.9844 13.6406 20.1816C13.623 19.584 13.6055 19.4902 13.5117 19.4141C13.3652 19.3086 13.2422 19.3086 13.0781 19.4258Z" fill="#F7B103"/>
</svg>
